<svg xmlns="http://www.w3.org/2000/svg" id="Layer_1" version="1.1" viewBox="220.4 275.6 2921.5 714.3">
  <!-- Generator: Adobe Illustrator 29.4.0, SVG Export Plug-In . SVG Version: 2.1.0 Build 152)  -->
  <g>
    <path d="M470.9,286.2v154.6c0-5.9-4.8-10.6-10.6-10.6h-229.3c-5.9,0-10.6,4.8-10.6,10.6v-154.6c0-5.9,4.8-10.6,10.6-10.6h229.3c5.9,0,10.6,4.8,10.6,10.6Z" fill="#c9f3ff"/>
    <path d="M470.9,363.5v77.3c0-5.9-4.8-10.6-10.6-10.6h-229.3c-5.9,0-10.6,4.8-10.6,10.6v-77.3c0-5.9,4.8-10.6,10.6-10.6h229.3c5.9,0,10.6,4.8,10.6,10.6Z" fill="#51b9ff"/>
    <path d="M470.9,440.7v549.1h-7l-243.5-243.5v-305.6c0-5.9,4.8-10.6,10.6-10.6h229.3c5.9,0,10.6,4.8,10.6,10.6Z" fill="#0069ff"/>
    <path d="M721.4,611.1v128.2s-250.5,0-250.5,0l164-164c31.9-31.9,86.5-9.3,86.5,35.8Z" fill="#f3b337"/>
    <path d="M471,989.8l250.5-250.5v199.9c0,28-22.7,50.7-50.7,50.7h-199.9Z" fill="#f70254"/>
  </g>
  <g>
    <path d="M1181.8,786.6v83.4h-321.6v-483.1h90.7v399.7h231Z"/>
    <path d="M1216.8,436.5c0-27.8,23.2-50.3,52.3-50.3s52.3,22.5,52.3,50.3-23.2,51.6-52.3,51.6-52.3-22.5-52.3-51.6ZM1224.1,535.1h88v334.8h-88v-334.8Z"/>
    <path d="M1714.4,702.5c0,101.2-72.1,176.7-164.8,176.7s-84-19.9-108.5-50.3v41h-87.4v-483.1h87.4v188.6c24.5-30.4,60.9-49.6,108.5-49.6,92.6,0,164.8,74.8,164.8,176.7ZM1628.4,701.9c0-57.6-39-97.9-94-97.9s-95.3,40.4-95.3,97.9,42.4,99.3,95.3,99.3,94-41,94-99.3Z"/>
    <path d="M1943.3,530.5v82.1c-71.5-11.2-110.5,21.8-110.5,111.8v145.6h-87.4v-334.8h87.4v49.6c19.8-39,58.2-61.5,110.5-54.3Z"/>
    <path d="M1951.6,702.5c0-99.9,70.1-176.7,175.4-176.7s172.7,76.1,172.7,172.1,0,20.5-2,31.1h-260.1c6,43,36.4,76.1,97.3,76.1s68.2-19.2,81.4-44.3l78.7,23.2c-19.2,43.7-73.5,95.3-161.5,95.3s-182-70.8-182-176.7ZM2214.3,674.1c-4-41-35.7-74.1-88-74.1s-84,35.7-88.7,74.1h176.7Z"/>
    <path d="M2773.2,436.5c0-27.8,23.2-50.3,52.3-50.3s52.3,22.5,52.3,50.3-23.2,51.6-52.3,51.6-52.3-22.5-52.3-51.6ZM2780.5,535.1h88v334.8h-88v-334.8Z"/>
    <path d="M2918.7,386.9h87.4v483.1h-87.4v-483.1Z"/>
    <path d="M3054.5,386.9h87.4v483.1h-87.4v-483.1Z"/>
    <path d="M2665.3,620.7c25.1,11.3,44.6,27.1,58.7,47.7,14.1,20.6,20.9,44.3,20.9,71.4,0,42.6-14.8,76.6-44.6,101.6-29.9,25.1-70.7,37.8-122.6,37.8h-248.2v-492.3h234.8c48.4,0,87.5,12,117.4,36.4,29.9,24.4,45,56,45.3,94.8,0,46.4-20.3,80.7-61.1,102.7h-.7ZM2423.6,470v121.5h141.8c19.6,0,35.7-5.8,48.1-17.9,12.4-12,18.5-26.8,18.2-44.3,0-17.5-6.2-31.9-18.9-43.3-12.7-11.3-29.2-16.8-49.4-16.5l-139.7.3ZM2577.4,795.4c22,0,39.5-6.2,52.5-18.2,13-12,19.6-27.5,19.6-46.3s-6.5-33.3-19.6-45.3c-13-12-30.6-17.9-52.5-17.9h-153.8v127.7h153.8Z"/>
  </g>
</svg>